<svg width="86.984mm" height="84.633mm" version="1.1" viewBox="0 0 86.984 84.633" xml:space="preserve" xmlns="http://www.w3.org/2000/svg"><g transform="translate(-74.677 -141.36)"><path fill="#fff" d="m113.28 223.88c-2.2556-1.1435-4.5433-2.2173-5.0838-2.3862-1.369-0.42772-2.0961-1.2956-2.2532-2.6897l-0.13197-1.1708-3.3431-1.5986c-1.8387-0.87922-4.5337-2.0377-5.9889-2.5744-3.372-1.2436-8.5583-3.796-8.8604-4.3605-0.1275-0.23825-0.3143-1.4496-0.41509-2.6918l-0.18327-2.2586-0.88872-0.32137c-1.3487-0.48768-3.6184-2.7193-4.5572-4.4805l-0.83804-1.5723v-29.031l1.8521-2.4935c1.0186-1.3714 1.867-2.7701 1.8852-3.1082 0.0182-0.33811 0.0628-0.73381 0.0992-0.87933s0.081-2.8244 0.0992-5.9531l0.0331-5.6886h14.272l0.68117-1.4399c0.82775-1.7497 1.844-2.4344 6.5254-4.3961 8.4305-3.5327 8.0514-3.4245 11.991-3.4245 3.9398 0 3.5607-0.10826 11.991 3.4245 4.6814 1.9617 5.6977 2.6464 6.5254 4.3961l0.68117 1.4399h14.272l0.0331 5.6886c0.0182 3.1287 0.0628 5.8076 0.0992 5.9531s0.081 0.54122 0.0992 0.87933 0.86651 1.7368 1.8852 3.1082l1.8521 2.4935v29.031l-0.83804 1.5723c-0.93872 1.7612-3.2085 3.9928-4.5572 4.4805l-0.88873 0.32137-0.18326 2.2586c-0.1008 1.2423-0.28759 2.4536-0.4151 2.6918-0.30213 0.56453-5.4885 3.1169-8.8604 4.3605-1.4552 0.53669-4.1502 1.6952-5.989 2.5744l-3.3431 1.5986-0.13197 1.1708c-0.14849 1.3174-0.92306 2.321-2 2.5912-0.38402 0.0964-2.7347 1.178-5.2238 2.4036-2.4891 1.2256-4.8127 2.213-5.1637 2.1942-0.35095-0.0188-2.4836-0.96975-4.7391-2.1133zm1.7871-3.6869c1.0558-0.77648 1.1277-0.79165 1.8874-0.39875 0.43441 0.22463 0.86873 0.53609 0.96516 0.69213 0.11879 0.19221 0.31619 0.16111 0.61209-0.0964 1.1688-1.0172 1.5778-1.0458 2.7653-0.19294l1.1266 0.80904 2.2412-0.9027 2.2412-0.90269 0.13377-1.4609c0.0736-0.80351 0.19264-1.5092 0.26458-1.5682 0.0719-0.059 1.0833-0.64853 2.2475-1.3101 3.614-2.0537 7.5187-3.9356 11.451-5.5187 2.0779-0.83657 4.0557-1.703 4.3951-1.9254 0.63455-0.41577 1.0582-1.7154 0.78837-2.4186-0.0837-0.21818-0.0114-0.98384 0.16078-1.7015 0.3226-1.3448 0.59596-1.6149 3.1808-3.1437 1.268-0.74993 2.274-1.8504 2.7641-3.0237 0.35302-0.8451 0.41091-3.8685 0.41091-14.3v-13.317l-3.9575-5.3854-0.0718-5.2319-0.0718-5.2319-14.155-0.141-4e-3 -1.1202c-2e-3 -0.61609-0.15323-1.4178-0.33574-1.7816-0.42169-0.84057-2.7811-2.0278-8.8696-4.4629-4.6073-1.8427-4.7732-1.8871-7.0626-1.8871-2.2894 0-2.4553 0.0443-7.0626 1.8871-6.0885 2.4352-8.448 3.6224-8.8696 4.4629-0.18251 0.36381-0.33359 1.1655-0.33574 1.7816l-4e-3 1.1202-14.155 0.141-0.0718 5.2319-0.0718 5.2319-3.9575 5.3854v13.317c0 11.441 0.0579 13.455 0.41091 14.3 0.49009 1.1732 1.4961 2.2737 2.7641 3.0237 2.5849 1.5288 2.8582 1.799 3.1808 3.1437 0.17216 0.71762 0.24451 1.4833 0.16078 1.7015-0.26982 0.70314 0.15383 2.0028 0.78837 2.4186 0.33939 0.22238 2.3172 1.0888 4.3951 1.9254 3.9323 1.5831 7.837 3.465 11.451 5.5187 1.1642 0.66156 2.1755 1.2511 2.2475 1.3101 0.0719 0.059 0.19101 0.76549 0.26458 1.57l0.13378 1.4628 2.1167 0.87435c1.1642 0.4809 2.1825 0.88496 2.263 0.89792 0.0805 0.0129 0.64024-0.33968 1.2439-0.78364zm-20.176-34.184v-11.708h-2.8826l0.075-1.4552c0.0413-0.80036 0.13417-1.5147 0.20645-1.5875 0.0723-0.0728 1.5801-0.16984 3.3507-0.21574l3.2192-0.0834 0.59691 1.4064c0.3283 0.7735 0.59619 1.4971 0.59531 1.6079-8.7e-4 0.11086-0.47784 0.12541-1.0599 0.0323l-1.0583-0.16925v11.623c0 8.687 0.0802 11.703 0.3175 11.94 0.24695 0.24694-0.0911 0.31751-1.5213 0.31754l-1.8389 4e-5zm6.2384 11.14c0.22062-0.41224 0.27753-4.0545 0.20774-13.295l-0.0961-12.728 1.1269-0.0815c0.74889-0.0541 1.1692 0.0346 1.253 0.26458 0.0693 0.19033 0.15754 6.2099 0.19602 13.377l0.07 13.031-1.5307-1.1e-4c-1.4834-1e-4 -1.5213-0.0177-1.2268-0.56788zm7.9168 0.20682c0-0.19853-0.73503-1.2932-1.6334-2.4325l-1.6334-2.0716 0.0672-8.6042 0.0672-8.6042 1.6985-1.8005c0.93417-0.99027 1.6985-1.962 1.6985-2.1593 0-0.47234 1.1807-0.68957 3.7479-0.68957h2.0942l1.0287 1.1141c1.1872 1.2858 1.3692 1.9947 1.3081 5.0964l-0.0444 2.2562h-2.8428v-4.7191l-1.8936-0.0879-1.8936-0.0878-2.292 2.3812 7e-3 7.0114 7e-3 7.0115 2.3139 2.5135h4.0282l-0.0727-4.2995-0.0727-4.2995-3.5719-0.1564v-3.4592l6.2177 0.1762 0.0669 6.6146 0.0669 6.6146-2.4256 3.0427h-3.0213c-2.3756 0-3.0213-0.0772-3.0213-0.36096zm4.4979-0.4463c-1.7512-0.31159-4.2968-0.30321-4.101 0.0135 0.0932 0.15083 1.2659 0.25034 2.7276 0.23146 2.1625-0.0279 2.3776-0.0663 1.3734-0.24497zm7.276 0.54267c-0.10594-0.17142 1.0997-0.26458 3.424-0.26458 2.2153 0 3.5875-0.1012 3.5875-0.26458 0-0.14552-0.0893-0.25049-0.19844-0.23325-0.10914 0.0172-1.6547 0.0172-3.4346 0l-3.2361-0.0313-0.0712-12.682-0.0711-12.682 0.63843-0.12197c0.35114-0.0671 2.0478-0.14021 3.7703-0.16249l3.1319-0.0405v0.64027c0 0.35214 0.1786 1.1464 0.39688 1.7651 0.21828 0.61868 0.39687 1.1694 0.39687 1.2239 0 0.0545-1.2502 0.099-2.7781 0.099h-2.7781v6.8792h5.5464l-0.1378 3.3073-5.422 0.151 0.0728 4.1578 0.0728 4.1579 2.4485 0.0761c2.397 0.0745 2.455 0.062 2.7544-0.59531 0.23862-0.52371 0.50028-0.6714 1.1895-0.6714 0.48596 0 0.88357 0.0761 0.88357 0.16912 0 0.093-0.62172 1.3432-1.3816 2.7781l-1.3816 2.609h-3.6299c-2.1345 0-3.6972-0.109-3.7934-0.26459zm11.713-11.558 0.0716-11.822-0.93417-1.407c-0.5138-0.77383-0.9032-1.4137-0.86533-1.4219 0.67745-0.1468 8.2801-0.1919 8.5109-0.0505 0.17744 0.10873 0.9997 0.94079 1.8273 1.849l1.5046 1.6514v5.4119l-2.7781 2.8347 1.6453 1.4153 0.18031 6.2902c0.0992 3.4596 0.24774 6.466 0.33015 6.6807 0.12243 0.31902-0.158 0.39055-1.5321 0.39076l-1.682 2.7e-4 0.0853-5.5594 0.0853-5.5594-1.6486-1.7169c-0.90675-0.94428-1.7488-1.7169-1.8713-1.7169-0.37058 0-0.27821 13.862 0.0949 14.235 0.24695 0.24694-0.0617 0.31751-1.3891 0.31757l-1.7066 8e-5zm5.2104-5.1416 1.7295-1.6178v-2.0946c0-2.4193 4e-3 -2.4154-2.485-2.4515l-1.616-0.0234-0.081 3.9026c-0.0695 3.3504-0.0241 3.9026 0.32105 3.9026 0.22112 0 1.1803-0.72802 2.1315-1.6178zm-47.218-22.181v-2.659h15.372l-0.0793 1.5214-0.0794 1.5214-5.8208 0.15541c-3.2015 0.0855-5.8472 0.17477-5.8794 0.19843-0.0322 0.0237-0.15836 0.42999-0.2803 0.90293-0.21398 0.82982-0.27439 0.86267-1.7274 0.93925l-1.5056 0.0793zm52.299 2.4562c-0.097-0.097-0.17821-0.36491-0.18044-0.59531-0.0112-1.1575-0.24001-1.2066-6.2698-1.345l-5.7647-0.13229-0.0794-1.5214-0.0794-1.5214h15.372v5.2917h-1.4111c-0.77611 0-1.4905-0.0794-1.5875-0.17639zm-60.804 47.619c-1.3612-1.1366-3.386-2.9598-4.4996-4.0516-3.0575-2.9978-2.8886-1.7159-2.8071-21.307l0.06819-16.396 2.7668-0.1596 0.07182 17.034 0.07182 17.034 0.76229 0.99927c0.92036 1.2065 2.8001 2.45 4.3309 2.8651l1.1245 0.30492 3e-3 1.4665c2e-3 0.80656 0.18038 2.0516 0.39735 2.7669 0.21696 0.71522 0.34737 1.3475 0.2898 1.4051-0.0576 0.0576-1.2184-0.82526-2.5796-1.9618zm69.785 1.3208c0.0987-0.40781 0.28118-1.0171 0.4054-1.354 0.12421-0.3369 0.22584-1.2945 0.22584-2.1279v-1.5154l1.1245-0.30492c1.5308-0.41509 3.4106-1.6586 4.3309-2.8651l0.7623-0.99927 0.0718-17.034 0.0718-17.034 2.7668 0.1596 0.0805 16.14c0.0555 11.113-0.0109 16.566-0.21304 17.509-0.16146 0.75324-0.64237 1.851-1.0687 2.4395-0.73923 1.0205-7.2771 6.9286-8.2662 7.47-0.41609 0.22774-0.45043 0.17089-0.29199-0.48338z"/></g></svg>
