<svg width="86.455mm" height="84.787mm" version="1.1" viewBox="0 0 86.455 84.787" xml:space="preserve" xmlns="http://www.w3.org/2000/svg"><g transform="translate(-63.036 -140.62)"><path fill="#fff" d="m103.22 224.02c-5.8194-2.9675-6.3534-3.2263-6.9794-3.3835-1.0249-0.25724-1.7992-1.2832-1.9451-2.5775l-0.13197-1.1708-3.4356-1.6471c-1.8896-0.90592-4.0489-1.8605-4.7983-2.1213-3.8909-1.3539-9.2516-3.9003-9.8777-4.6921-0.1721-0.21766-0.39434-1.4366-0.49386-2.7088l-0.18095-2.313-0.89092-0.32216c-1.3506-0.48839-3.62-2.7189-4.5594-4.4813l-0.83804-1.5723v-29.033l3.954-5.289 0.0073-6.4161 0.0074-6.4162h14.272l0.68117-1.4399c0.82775-1.7497 1.844-2.4344 6.5254-4.3961 8.346-3.4973 8.0966-3.4245 11.727-3.4245 3.6301 0 3.3806-0.0729 11.727 3.4245 4.6814 1.9617 5.6977 2.6464 6.5254 4.3961l0.68117 1.4399h14.272l7e-3 6.4162 7e-3 6.4161 1.977 2.6445 1.977 2.6445v29.033l-0.83803 1.5723c-0.93933 1.7624-3.2087 3.9929-4.5594 4.4813l-0.89092 0.32216-0.18095 2.313c-0.0995 1.2722-0.32176 2.4911-0.49386 2.7088-0.62607 0.79178-5.9868 3.3382-9.8777 4.6921-0.74948 0.26079-2.9087 1.2154-4.7983 2.1213l-3.4356 1.6471-0.13197 1.1708c-0.14892 1.3212-0.94145 2.3442-2.0124 2.5977-0.38191 0.0904-1.5874 0.6318-2.6788 1.2031-2.9462 1.5423-6.9741 3.5033-7.276 3.5425-0.14553 0.0189-1.5147-0.60318-3.0427-1.3823zm0.21491-4.5832 1.1129-0.81844 0.85745 0.50422c0.84146 0.49482 0.87336 0.49489 1.7113 4e-3l0.85382-0.50033 1.1383 0.81749 1.1383 0.8175 4.4824-1.8054 0.13378-1.4609c0.0736-0.80351 0.19264-1.5158 0.26458-1.5828 0.28633-0.2667 3.9826-2.0238 6.4808-3.0809 1.4552-0.61572 4.015-1.753 5.6885-2.5274 1.6735-0.77434 3.6976-1.6765 4.4979-2.0049 2.2866-0.9381 2.0598-1.0968 2.3812-3.4424 0.38112-2.7806 0.2409-3.4092 1.6065-3.5818 1.4783-0.18689 3.4077-1.5813 4.138-2.8767l0.59673-1.0583 8e-3 -28.072-1.9788-2.6927-1.9788-2.6927-0.1436-10.464-14.155-0.141-4e-3 -1.1202c-2e-3 -0.61609-0.15323-1.4178-0.33574-1.7816-0.42169-0.84057-2.7811-2.0278-8.8696-4.4629-4.4492-1.7795-4.8366-1.8871-6.798-1.8871-1.9614 0-2.3488 0.10753-6.798 1.8871-6.0885 2.4352-8.448 3.6224-8.8697 4.4629-0.18251 0.3638-0.33359 1.1655-0.33574 1.7816l-0.0039 1.1202-14.155 0.141-0.14352 10.464-3.9575 5.3854 0.0088 28.072 0.59673 1.0583c0.73037 1.2953 2.6666 2.6414 4.138 2.8767 1.3656 0.21837 1.3016 0.74025 1.6065 3.5818 0.25258 2.354 0.09463 2.5043 2.3812 3.4424 0.80036 0.32836 2.8244 1.2306 4.4979 2.0049 1.6735 0.77433 4.2333 1.9116 5.6885 2.5274 2.4982 1.057 6.1945 2.8142 6.4808 3.0809 0.07194 0.067 0.19101 0.78009 0.26458 1.5846l0.13378 1.4628 2.1167 0.87436c1.1642 0.4809 2.1825 0.88496 2.263 0.89791 0.0805 0.013 0.64712-0.34474 1.2592-0.79488zm-24.557-61.623v-2.6458h15.346v3.175h-12.435v2.1167h-2.9104zm51.858 1.5875v-1.0583h-12.435v-3.175h15.346v5.2917h-2.9104zm-60.363 48.501c-1.3612-1.1366-3.386-2.9598-4.4996-4.0516-3.0575-2.9977-2.8886-1.7159-2.8071-21.307l0.06818-16.396 2.7668-0.1596 0.14364 34.068 0.76229 0.99926c0.92036 1.2065 2.8001 2.45 4.3309 2.8651l1.1245 0.30492 0.0029 1.4665c0.0016 0.80656 0.18038 2.0516 0.39735 2.7669 0.21697 0.71522 0.34738 1.3475 0.2898 1.4051-0.05758 0.0576-1.2184-0.82526-2.5796-1.9619zm69.256 1.3208c0.0988-0.40781 0.28119-1.0171 0.4054-1.354 0.12421-0.33689 0.22584-1.2945 0.22584-2.1279v-1.5154l1.1245-0.30492c1.5308-0.4151 3.4106-1.6586 4.3309-2.8651l0.76229-0.99926 0.1436-34.068 2.7668 0.1596 0.0805 16.14c0.0554 11.113-0.0109 16.566-0.21304 17.509-0.16146 0.75323-0.64236 1.851-1.0687 2.4395-0.73924 1.0205-7.2771 6.9286-8.2662 7.47-0.41609 0.22774-0.45042 0.17089-0.29199-0.48339z"/><text x="79.949493" y="198.78937" fill="#fff" font-family="'Franklin Gothic Medium'" font-size="42.517px" stroke-width=".44963" style="line-height:0" xml:space="preserve"><tspan x="79.949493" y="198.78937" font-family="'Franklin Gothic Medium'" stroke-width=".44963" style="line-height:0" >L.T</tspan></text></g></svg>
