<svg id="exportSVG" visibility="visible" xmlns="http://www.w3.org/2000/svg" xmlns:xlink="http://www.w3.org/1999/xlink" version="1.1" data-info="draw.ninja" data-name="draw" viewBox="0 0 1200 250" width="1200" height="250" style="position: fixed; top: 0px; left: 0px;"><defs id="defsExport"><filter id="filter0"><feGaussianBlur stdDeviation="0"></feGaussianBlur></filter><pattern id="patternImage" patternUnits="userSpaceOnUse" x="0" y="0" width="1" height="1" data-x="0" data-y="0" data-width="1" data-height="1" data-multx="1" data-multy="1" patternTransform="matrix(1,0,0,1,0,0)" data-transs="0" data-transf="0" data-source="patternImage" data-draw="1" fill="#B3B3B3" fill-opacity="1"></pattern><pattern id="pattern0" patternUnits="userSpaceOnUse" x="0" y="0" width="10" height="10" data-x="0" data-y="0" data-width="10" data-height="10" data-multx="1" data-multy="1" stroke="none" patternTransform="matrix(1,0,0,1,0,0)" data-transs="0" data-transf="0" data-source="Pattern 0" data-draw="1" fill="#B3B3B3" fill-opacity="1"><path transform="matrix(1,0,0,1,0,0)" d="M0 0 L5 0 L5 5 L0 5 L0 0 Z"></path></pattern><pattern id="pattern1" patternUnits="userSpaceOnUse" x="0" y="0" width="10" height="10" data-x="0" data-y="0" data-width="10" data-height="10" data-multx="1" data-multy="1" stroke="none" patternTransform="matrix(1,0,0,1,0,0)" data-transs="0" data-transf="0" data-source="Pattern 1" data-draw="1" fill="#B3B3B3" fill-opacity="1"><path transform="matrix(1,0,0,1,0,0)" d="M0 5 L5 0 L10 5 L5 10 L0 5 Z"></path></pattern><pattern id="pattern2" patternUnits="userSpaceOnUse" x="0" y="0" width="10" height="10" data-x="0" data-y="0" data-width="10" data-height="10" data-multx="1" data-multy="1" stroke="none" patternTransform="matrix(1,0,0,1,0,0)" data-transs="0" data-transf="0" data-source="Pattern 2" data-draw="1" fill="#B3B3B3" fill-opacity="1"><path transform="matrix(1,0,0,1,0,0)" d="M0 9 L5 1 L10 9 L0 9 Z"></path></pattern><pattern id="pattern3" patternUnits="userSpaceOnUse" x="0" y="0" width="10" height="10" data-x="0" data-y="0" data-width="10" data-height="10" data-multx="1" data-multy="1" stroke="none" patternTransform="matrix(1,0,0,1,0,0)" data-transs="0" data-transf="0" data-source="Pattern 3" data-draw="1" fill="#B3B3B3" fill-opacity="1"><path transform="matrix(1,0,0,1,0,0)" d="M0 5 C0 2.25 2.25 0 5 0 C7.75 0 10 2.25 10 5 C10 7.75 7.75 10 5 10 C2.25 10 0 7.75 0 5 Z"></path></pattern><pattern id="pattern4" patternUnits="userSpaceOnUse" x="0" y="0" width="10" height="10" data-x="0" data-y="0" data-width="10" data-height="10" data-multx="1" data-multy="1" stroke="none" patternTransform="matrix(1,0,0,1,0,0)" data-transs="0" data-transf="0" data-source="Pattern 4" data-draw="1" fill="#B3B3B3" fill-opacity="1"><path transform="matrix(1,0,0,1,0,0)" d="M0 5 L4 4 L5 0 L6 4 L10 5 L6 6 L5 10 L4 6 L0 5 Z"></path></pattern><pattern id="pattern5" patternUnits="userSpaceOnUse" x="0" y="0" width="10" height="10" data-x="0" data-y="0" data-width="10" data-height="10" data-multx="1" data-multy="1" stroke="none" patternTransform="matrix(1,0,0,1,0,0)" data-transs="0" data-transf="0" data-source="Pattern 5" data-draw="1" fill="#B3B3B3" fill-opacity="1"><path transform="matrix(1,0,0,1,0,0)" d="M5 10 C-5 2.75 3 -1.75 5 1 C7 -1.75 15 2.75 5 10 Z"></path></pattern><pattern id="pattern6" patternUnits="userSpaceOnUse" x="0" y="0" width="10" height="10" data-x="0" data-y="0" data-width="10" data-height="10" data-multx="1" data-multy="1" stroke="none" patternTransform="matrix(1,0,0,1,0,0)" data-transs="0" data-transf="0" data-source="Pattern 6" data-draw="1" fill="#B3B3B3" fill-opacity="1"><path transform="matrix(1,0,0,1,0,0)" d="M3 0 L7 0 L7 10 L3 10 L3 0 Z"></path></pattern><pattern id="pattern7" patternUnits="userSpaceOnUse" x="0" y="0" width="10" height="10" data-x="0" data-y="0" data-width="10" data-height="10" data-multx="1" data-multy="1" stroke="none" patternTransform="matrix(1,0,0,1,0,0)" data-transs="0" data-transf="0" data-source="Pattern 7" data-draw="1" fill="#B3B3B3" fill-opacity="1"><path transform="matrix(1,0,0,1,0,0)" d="M10 3 L10 7 L0 7 L0 3 L10 3 Z"></path></pattern><pattern id="pattern8" patternUnits="userSpaceOnUse" x="0" y="0" width="10" height="10" data-x="0" data-y="0" data-width="10" data-height="10" data-multx="1" data-multy="1" stroke="none" patternTransform="matrix(1,0,0,1,0,0)" data-transs="0" data-transf="0" data-source="Pattern 8" data-draw="1" fill="#B3B3B3" fill-opacity="1"><path transform="matrix(1,0,0,1,0,0)" d="M0 10 L3 3 L10 0 L7 7 L0 10 Z"></path></pattern><pattern id="pattern9" patternUnits="userSpaceOnUse" x="0" y="0" width="10" height="10" data-x="0" data-y="0" data-width="10" data-height="10" data-multx="1" data-multy="1" stroke="none" patternTransform="matrix(1,0,0,1,0,0)" data-transs="0" data-transf="0" data-source="Pattern 9" data-draw="1" fill="#B3B3B3" fill-opacity="1"><path transform="matrix(1,0,0,1,0,0)" d="M0 4 L10 4 L10 6 L0 6 L0 4 Z M4 10 L4 0 L6 0 L6 10 L4 10 Z"></path></pattern><linearGradient id="linearSystem" gradientUnits="objectBoundingBox" x1="0%" y1="50%" x2="100%" y2="50%" spreadMethod="pad"><stop offset="50%" stop-color="#D0D0D0" stop-opacity="1"></stop><stop offset="100%" stop-color="transparent" stop-opacity="1"></stop></linearGradient><linearGradient id="linearSystem1" gradientUnits="objectBoundingBox" x1="0%" y1="50%" x2="100%" y2="50%" spreadMethod="pad"><stop offset="30%" stop-color="#D0D0D0" stop-opacity="1"></stop><stop offset="100%" stop-color="transparent" stop-opacity="1"></stop></linearGradient><linearGradient id="linearSystem2" gradientUnits="objectBoundingBox" x1="0%" y1="50%" x2="50%" y2="50%" spreadMethod="repeat"><stop offset="30%" stop-color="#D0D0D0" stop-opacity="1"></stop><stop offset="100%" stop-color="transparent" stop-opacity="1"></stop></linearGradient><linearGradient id="linearSystem3" gradientUnits="objectBoundingBox" x1="0%" y1="50%" x2="50%" y2="50%" spreadMethod="reflect"><stop offset="30%" stop-color="#D0D0D0" stop-opacity="1"></stop><stop offset="100%" stop-color="transparent" stop-opacity="1"></stop></linearGradient><radialGradient id="radialSystem" gradientUnits="objectBoundingBox" r="0.5" cx="0.5" fx="0.5" cy="0.5" fy="0.5" spreadMethod="pad"><stop offset="50%" stop-color="#D0D0D0" stop-opacity="1"></stop><stop offset="100%" stop-color="transparent" stop-opacity="1"></stop></radialGradient><pattern id="patternSystem" patternUnits="userSpaceOnUse" x="0" y="0" width="6" height="8"><path stroke="#D0D0D0" stroke-width="5" fill="none" d="M0 0 L0 10"></path></pattern><linearGradient id="linear0" gradientUnits="objectBoundingBox" x1="0%" y1="50%" x2="100%" y2="50%" spreadMethod="pad"><stop offset="0%" stop-color="#FF8000" stop-opacity="1"></stop><stop offset="100%" stop-color="#FFFF00" stop-opacity="1"></stop></linearGradient><linearGradient id="linear1" gradientUnits="objectBoundingBox" x1="0%" y1="50%" x2="100%" y2="50%" spreadMethod="pad"><stop offset="0%" stop-color="#FFFF00" stop-opacity="1"></stop><stop offset="100%" stop-color="#FF8000" stop-opacity="1"></stop></linearGradient><linearGradient id="linearImport" gradientUnits="objectBoundingBox" x1="0%" y1="50%" x2="100%" y2="50%" spreadMethod="pad"><stop offset="0%" stop-color="#FFFFFF" stop-opacity="0.1"></stop><stop offset="100%" stop-color="#000000" stop-opacity="0.1"></stop></linearGradient><radialGradient id="radial0" gradientUnits="objectBoundingBox" r="0.5" cx="0.5" fx="0.5" cy="0.5" fy="0.5" spreadMethod="pad"><stop offset="0%" stop-color="#FF8000" stop-opacity="1"></stop><stop offset="100%" stop-color="#FFFF00" stop-opacity="1"></stop></radialGradient><radialGradient id="radial1" gradientUnits="objectBoundingBox" r="0.5" cx="0.5" fx="0.5" cy="0.5" fy="0.5" spreadMethod="pad"><stop offset="0%" stop-color="#FFFF00" stop-opacity="1"></stop><stop offset="100%" stop-color="#FF8000" stop-opacity="1"></stop></radialGradient><radialGradient id="radialImport" gradientUnits="objectBoundingBox" r="0.5" cx="0.5" fx="0.5" cy="0.5" fy="0.5" spreadMethod="pad"><stop offset="0%" stop-color="#FFFFFF" stop-opacity="0.1"></stop><stop offset="100%" stop-color="#000000" stop-opacity="0.1"></stop></radialGradient></defs><rect id="pageExport" x="0" y="0" width="1200" height="250" fill="none" fill-opacity="0" stroke="none" stroke-width="0"></rect><g id="objectsExport" visibility="visible"><g id="group50" visibility="visible" stroke="#000000" stroke-width="2" stroke-opacity="1" stroke-dasharray="none" fill="none" fill-opacity="1" data-name="group" data-title="group" deg="0" data-edit="1" data-centerx="597.206" data-centery="130.473"><path id="path38" d="M370.165 52.229 L370.165 52.229 C370.165 50.473 369.819 49.49 369.131 49.283 C368.408 49.077 367.546 48.886 366.548 48.717 C366.548 48.717 323.775 48.717 323.775 48.717 C320.674 49.373 318.23 50.612 316.439 52.436 C314.682 54.228 313.303 56.346 312.305 58.789 C311.271 61.233 310.513 63.868 310.032 66.694 C309.515 69.483 308.963 72.186 308.379 74.805 C308.208 75.563 308.034 76.472 307.863 77.542 C307.692 78.576 307.537 79.18 307.398 79.351 C307.227 79.593 306.917 79.712 306.467 79.712 C306.467 79.712 302.335 79.712 302.335 79.712 C301.818 79.712 301.56 79.557 301.56 79.247 C301.56 79.247 301.56 75.063 301.56 75.063 C301.56 75.063 306.261 31.925 306.261 31.925 C306.4 30.996 306.777 30.119 307.398 29.292 C307.982 28.429 308.896 28 310.136 28 C310.719 28 311.288 28.171 311.84 28.517 C312.392 28.862 312.926 29.255 313.442 29.704 C313.922 30.186 314.407 30.636 314.888 31.048 C315.338 31.461 315.818 31.756 316.334 31.925 C317.333 32.34 318.282 32.613 319.176 32.753 C320.039 32.892 321.02 32.959 322.12 32.959 C322.12 32.959 454.319 32.959 454.319 32.959 C455.42 32.959 456.401 32.892 457.263 32.753 C458.157 32.613 459.109 32.34 460.105 31.925 C460.622 31.756 461.102 31.461 461.551 31.048 C462.033 30.636 462.518 30.186 462.997 29.704 C463.514 29.255 464.047 28.862 464.6 28.517 C465.152 28.171 465.72 28 466.304 28 C467.544 28 468.458 28.429 469.042 29.292 C469.662 30.119 470.04 30.996 470.179 31.925 C470.179 31.925 474.88 75.063 474.88 75.063 C474.88 75.063 474.88 79.247 474.88 79.247 C474.88 79.557 474.621 79.712 474.105 79.712 C474.105 79.712 469.973 79.712 469.973 79.712 C469.523 79.712 469.213 79.593 469.042 79.351 C468.902 79.18 468.748 78.576 468.577 77.542 C468.408 76.472 468.231 75.563 468.06 74.805 C467.477 72.186 466.925 69.483 466.408 66.694 C465.927 63.868 465.168 61.233 464.135 58.789 C463.139 56.346 461.758 54.228 460.001 52.436 C458.209 50.612 455.765 49.373 452.667 48.717 C452.667 48.717 409.788 48.717 409.788 48.717 C408.791 48.886 407.929 49.077 407.206 49.283 C406.481 49.49 406.121 50.473 406.121 52.229 C406.121 52.229 406.121 186.183 406.121 186.183 C406.121 188.699 406.756 190.952 408.031 192.95 C409.271 194.915 410.977 196.655 413.146 198.169 C415.28 199.682 417.795 200.907 420.689 201.836 C423.581 202.766 426.681 203.387 429.988 203.697 C430.882 203.799 432.054 203.851 433.5 203.851 C434.911 203.851 436.134 203.851 437.168 203.851 C437.582 203.851 437.855 203.97 437.995 204.214 C438.099 204.455 438.149 204.662 438.149 204.833 C438.149 204.833 438.149 209.741 438.149 209.741 C438.149 209.91 438.099 210.139 437.995 210.412 C437.855 210.656 437.582 210.775 437.168 210.775 C437.168 210.775 339.168 210.775 339.168 210.775 C338.755 210.775 338.482 210.656 338.343 210.412 C338.203 210.139 338.135 209.91 338.135 209.741 C338.135 209.741 338.135 204.833 338.135 204.833 C338.135 204.662 338.203 204.455 338.343 204.214 C338.482 203.97 338.755 203.851 339.168 203.851 C340.099 203.851 341.287 203.851 342.733 203.851 C344.216 203.851 345.419 203.799 346.35 203.697 C349.619 203.387 352.703 202.766 355.597 201.836 C358.526 200.907 361.057 199.682 363.191 198.169 C365.325 196.655 367.029 194.915 368.304 192.95 C369.544 190.952 370.165 188.699 370.165 186.183 C370.165 186.183 370.165 52.229 370.165 52.229 Z M550.666 186.804 L550.666 186.804 C550.666 189.66 551.094 192.058 551.956 193.984 C552.85 195.911 554.127 197.482 555.78 198.686 C557.397 199.859 559.411 200.684 561.824 201.165 C564.201 201.682 566.872 201.941 569.831 201.941 C570.487 201.941 570.812 202.286 570.812 202.974 C570.812 202.974 570.812 209.741 570.812 209.741 C570.812 210.015 570.777 210.258 570.71 210.464 C570.643 210.671 570.348 210.775 569.831 210.775 C569.831 210.775 495.286 210.775 495.286 210.775 C494.873 210.775 494.598 210.656 494.459 210.412 C494.319 210.139 494.253 209.91 494.253 209.741 C494.253 209.741 494.253 202.974 494.253 202.974 C494.253 202.803 494.319 202.576 494.459 202.301 C494.598 202.059 494.873 201.941 495.286 201.941 C498.215 201.941 500.88 201.749 503.293 201.372 C505.706 200.994 507.735 200.184 509.389 198.944 C511.079 197.667 512.386 195.859 513.315 193.519 C514.244 191.144 514.711 187.939 514.711 183.91 C514.711 183.91 514.711 56.878 514.711 56.878 C514.711 54.021 514.261 51.624 513.367 49.698 C512.505 47.771 511.248 46.22 509.596 45.048 C507.943 43.875 505.929 43.033 503.551 42.516 C501.139 42.037 498.474 41.793 495.544 41.793 C494.857 41.793 494.511 41.447 494.511 40.76 C494.511 40.76 494.511 33.94 494.511 33.94 C494.511 33.284 494.857 32.959 495.544 32.959 C495.544 32.959 570.089 32.959 570.089 32.959 C570.504 32.959 570.777 33.078 570.917 33.321 C571.021 33.563 571.071 33.771 571.071 33.94 C571.071 33.94 571.071 40.76 571.071 40.76 C571.071 40.931 571.021 41.137 570.917 41.38 C570.777 41.654 570.504 41.793 570.089 41.793 C567.13 41.793 564.46 41.985 562.082 42.362 C559.67 42.708 557.623 43.514 555.936 44.789 C554.246 46.066 552.954 47.875 552.06 50.215 C551.131 52.555 550.666 55.757 550.666 59.822 C550.666 59.822 550.666 186.804 550.666 186.804 Z M596.953 120.368 L596.953 120.368 C596.953 111.861 598.073 103.698 600.311 95.882 C602.584 88.066 605.787 80.73 609.92 73.874 C614.052 67.019 618.996 60.803 624.747 55.226 C630.496 49.609 636.819 44.789 643.705 40.76 C650.592 36.73 657.98 33.615 665.868 31.409 C673.721 29.24 681.815 28.154 690.147 28.154 C694.592 28.154 699.121 28.429 703.734 28.981 C708.385 29.533 712.914 30.221 717.321 31.048 C721.728 31.875 725.912 32.805 729.874 33.838 C733.837 34.834 737.298 35.749 740.259 36.576 C743.255 37.438 745.699 38.141 747.595 38.693 C749.491 39.247 750.554 39.52 750.797 39.52 C750.797 39.52 752.295 39.52 752.295 39.52 C752.983 39.52 753.52 39.453 753.898 39.314 C754.275 39.174 754.604 39.02 754.879 38.849 C755.189 38.678 755.515 38.539 755.86 38.434 C756.171 38.295 756.671 38.228 757.358 38.228 C757.358 38.228 762.421 38.228 762.421 38.228 C762.59 38.228 762.871 38.295 763.247 38.434 C763.624 38.539 763.815 38.936 763.815 39.624 C763.815 39.624 763.815 81.624 763.815 81.624 C763.815 82.553 763.403 83.189 762.576 83.535 C761.786 83.845 761.092 83.999 760.509 83.999 C759.75 83.933 759.078 83.52 758.494 82.76 C757.91 82 757.358 81.158 756.842 80.228 C756.36 79.299 755.948 78.42 755.602 77.595 C755.256 76.73 755.048 76.096 754.981 75.682 C752.879 69.138 749.903 63.61 746.045 59.099 C742.221 54.62 737.727 50.953 732.562 48.096 C727.395 45.239 721.728 43.172 715.565 41.897 C709.366 40.62 702.857 39.985 696.038 39.985 C684.361 39.985 674.615 42.139 666.797 46.443 C658.982 50.715 652.694 56.465 647.941 63.697 C643.189 70.929 639.832 79.282 637.867 88.752 C635.869 98.222 634.871 108.162 634.871 118.561 C634.871 125.726 635.596 132.752 637.042 139.638 C638.453 146.525 640.488 153.069 643.136 159.269 C645.787 165.431 649.012 171.098 652.798 176.265 C656.584 181.43 660.805 185.889 665.455 189.646 C670.141 193.4 675.182 196.324 680.59 198.428 C686.031 200.53 691.785 201.578 697.846 201.578 C704.628 201.578 710.621 200.84 715.823 199.357 C720.99 197.874 725.159 195.002 728.324 190.729 C728.324 190.729 728.324 162.833 728.324 162.833 C728.324 159.217 727.897 155.998 727.034 153.173 C726.14 150.383 724.518 148.023 722.178 146.095 C719.8 144.133 716.598 142.649 712.568 141.653 C708.539 140.655 703.374 140.155 697.071 140.155 C696.554 140.155 696.192 139.674 695.986 138.707 C695.779 137.743 695.675 136.915 695.675 136.228 C695.675 135.815 695.779 135.107 695.986 134.111 C696.192 133.077 696.554 132.561 697.071 132.561 C697.071 132.561 784.84 132.561 784.84 132.561 C785.528 132.561 785.926 133.04 786.03 134.007 C786.169 134.973 786.236 135.711 786.236 136.228 C786.236 136.642 786.149 137.313 785.978 138.242 C785.807 139.174 785.426 139.807 784.84 140.155 C782.569 141.084 780.244 141.874 777.867 142.53 C775.454 143.218 773.254 144.095 771.256 145.166 C769.224 146.266 767.551 147.764 766.245 149.66 C764.936 151.556 764.28 154.14 764.28 157.409 C764.28 157.409 764.28 194.242 764.28 194.242 C764.28 194.93 764.007 195.482 763.455 195.896 C762.938 196.309 762.074 196.773 760.871 197.29 C756.186 199.563 750.849 201.697 744.857 203.697 C738.9 205.727 732.768 207.518 726.466 209.068 C720.163 210.619 713.896 211.858 707.662 212.789 C701.426 213.719 695.744 214.183 690.614 214.183 C677.594 214.183 665.403 212.014 654.037 207.674 C642.709 203.335 632.789 197.119 624.282 189.025 C615.809 180.899 609.129 171.031 604.237 159.424 C599.382 147.816 596.953 134.797 596.953 120.368 Z M793.416 207.985 L793.416 204.316 C793.416 204.249 793.453 204.074 793.52 203.799 C793.624 203.491 793.933 203.335 794.45 203.335 C794.45 203.335 797.188 203.335 797.188 203.335 C800.738 203.093 804.353 202.937 808.036 202.87 C811.756 202.835 815.129 202.39 818.162 201.526 C821.159 200.632 823.638 199.063 825.601 196.825 C827.528 194.619 828.495 191.158 828.495 186.441 C828.495 186.441 828.495 57.291 828.495 57.291 C828.495 54.021 827.822 51.35 826.48 49.283 C825.136 47.219 823.365 45.549 821.159 44.273 C818.99 43.033 816.508 42.089 813.72 41.433 C810.93 40.812 808.103 40.295 805.247 39.882 C805.247 39.882 802.613 39.882 802.613 39.882 C802.198 39.882 801.925 39.763 801.786 39.52 C801.682 39.247 801.632 39.02 801.632 38.849 C801.632 38.849 801.632 33.94 801.632 33.94 C801.632 33.771 801.682 33.563 801.786 33.321 C801.925 33.078 802.198 32.959 802.613 32.959 C802.613 32.959 928.251 32.959 928.251 32.959 C929.764 32.959 930.849 33.217 931.505 33.734 C932.191 34.288 932.626 35.49 932.797 37.351 C932.797 37.351 935.07 77.697 935.07 77.697 C935.07 78.147 934.708 78.472 933.985 78.678 C933.262 78.884 932.606 78.989 932.022 78.989 C931.366 78.989 930.693 78.901 930.007 78.73 C929.319 78.559 928.855 78.301 928.611 77.955 C928.028 77.128 927.615 75.888 927.372 74.236 C927.098 72.619 926.82 70.79 926.544 68.76 C926.236 66.729 925.807 64.627 925.255 62.458 C924.738 60.251 923.926 58.237 922.825 56.413 C921.725 54.553 920.227 52.936 918.331 51.557 C916.435 50.146 914.028 49.196 911.099 48.717 C911.099 48.717 866.051 48.717 866.051 48.717 C864.95 48.717 864.398 49.269 864.398 50.369 C864.398 50.369 864.398 110.502 864.398 110.502 C864.398 111.327 864.828 111.742 865.69 111.742 C865.69 111.742 901.748 111.742 901.748 111.742 C903.85 111.742 905.934 111.483 907.999 110.967 C910.066 110.413 911.874 109.417 913.424 107.971 C914.974 106.56 916.229 104.56 917.195 101.978 C918.16 99.43 918.641 96.14 918.641 92.111 C918.641 91.423 918.987 91.077 919.675 91.077 C919.675 91.077 924.582 91.077 924.582 91.077 C925.269 91.077 925.615 91.423 925.615 92.111 C925.615 92.111 925.615 149.867 925.615 149.867 C925.615 150.279 925.476 150.554 925.202 150.694 C924.959 150.796 924.753 150.848 924.582 150.848 C924.582 150.848 919.675 150.848 919.675 150.848 C919.26 150.848 918.987 150.729 918.848 150.485 C918.708 150.244 918.641 150.038 918.641 149.867 C918.641 145.149 918.16 141.343 917.195 138.449 C916.229 135.557 914.958 133.284 913.372 131.631 C911.755 129.977 909.926 128.892 907.897 128.375 C905.83 127.823 903.661 127.55 901.388 127.55 C901.388 127.55 865.69 127.55 865.69 127.55 C864.828 127.55 864.398 127.962 864.398 128.789 C864.398 128.789 864.398 183.91 864.398 183.91 C864.398 186.354 864.776 188.317 865.534 189.8 C866.294 191.246 867.328 192.346 868.634 193.106 C869.941 193.865 871.439 194.361 873.129 194.604 C874.818 194.878 876.574 195.017 878.398 195.017 C878.398 195.017 912.855 195.017 912.855 195.017 C917.747 195.017 921.829 193.896 925.098 191.66 C928.37 189.422 931.024 186.716 933.055 183.549 C935.053 180.347 936.531 177.023 937.497 173.579 C938.464 170.133 939.083 167.187 939.356 164.745 C939.527 163.645 940.064 162.782 940.958 162.162 C941.888 161.541 942.938 161.232 944.111 161.232 C944.559 161.232 945.075 161.386 945.659 161.697 C946.242 162.043 946.538 162.42 946.538 162.833 C946.538 162.833 942.354 209.018 942.354 209.018 C942.183 209.431 941.956 209.829 941.681 210.206 C941.371 210.583 941.01 210.775 940.598 210.775 C940.598 210.775 794.45 210.775 794.45 210.775 C793.933 210.775 793.624 210.619 793.52 210.308 C793.453 210.035 793.416 209.844 793.416 209.741 C793.416 209.741 793.416 207.985 793.416 207.985 Z M963.173 205.712 L963.173 204.214 C963.173 204.147 963.208 203.955 963.275 203.645 C963.379 203.372 963.673 203.232 964.154 203.232 C964.671 203.232 965.481 203.143 966.582 202.974 C967.682 202.803 968.82 202.626 969.992 202.457 C971.163 202.286 972.249 202.095 973.247 201.888 C974.243 201.682 974.966 201.526 975.416 201.424 C980.206 200.353 983.542 198.582 985.438 196.102 C987.334 193.623 988.28 190.523 988.28 186.804 C988.28 186.804 988.28 58.686 988.28 58.686 C988.28 54.486 987.386 51.159 985.592 48.717 C983.836 46.272 981.806 44.444 979.498 43.239 C977.187 41.999 974.966 41.241 972.832 40.966 C970.663 40.657 969.201 40.501 968.442 40.501 C968.442 40.501 963.69 40.501 963.69 40.501 C963.24 40.501 962.967 40.382 962.863 40.141 C962.723 39.866 962.656 39.659 962.656 39.52 C962.656 39.52 962.656 33.94 962.656 33.94 C962.656 33.771 962.708 33.58 962.811 33.373 C962.877 33.165 963.173 33.026 963.69 32.959 C963.757 32.959 963.948 32.959 964.257 32.959 C964.532 32.959 965.136 32.924 966.065 32.857 C966.994 32.819 968.338 32.79 970.095 32.753 C971.851 32.717 974.33 32.649 977.535 32.546 C982.148 32.479 987.092 32.355 992.361 32.184 C997.631 32.015 1002.95 31.838 1008.323 31.667 C1013.697 31.498 1019.016 31.359 1024.286 31.255 C1029.52 31.115 1034.464 31.048 1039.112 31.048 C1039.112 31.048 1051.822 31.048 1051.822 31.048 C1058.47 31.048 1065.237 32.184 1072.124 34.457 C1079.01 36.73 1085.261 40.074 1090.876 44.479 C1096.455 48.886 1101.039 54.384 1104.619 60.96 C1108.198 67.504 1109.99 75.063 1109.99 83.639 C1109.99 89.181 1109.232 94.125 1107.717 98.465 C1106.204 102.803 1104.117 106.627 1101.466 109.933 C1098.816 113.275 1095.665 116.199 1092.013 118.715 C1088.361 121.232 1084.383 123.453 1080.079 125.379 C1080.079 125.379 1118.308 185.924 1118.308 185.924 C1121.579 191.127 1125.4 195.859 1129.777 200.132 C1134.153 204.368 1139.231 207.329 1145.017 209.018 C1145.704 209.187 1146.117 209.416 1146.256 209.689 C1146.36 210 1146.411 210.36 1146.411 210.775 C1146.411 212.05 1146.085 212.892 1145.429 213.304 C1144.743 213.719 1143.689 213.925 1142.279 213.925 C1138.729 213.925 1134.721 213.702 1130.242 213.254 C1125.731 212.773 1121.202 212.014 1116.655 210.981 C1112.109 209.91 1107.806 208.537 1103.739 206.847 C1099.643 205.158 1096.214 203.061 1093.459 200.545 C1090.773 198.205 1088.036 195.223 1085.246 191.608 C1082.491 187.991 1079.701 184.101 1076.876 179.932 C1074.051 175.763 1071.282 171.446 1068.559 166.966 C1065.806 162.455 1063.15 158.045 1060.604 153.742 C1058.02 149.469 1055.556 145.491 1053.216 141.807 C1050.876 138.088 1048.738 134.921 1046.811 132.302 C1046.811 132.302 1027.127 130.958 1027.127 130.958 C1027.025 130.958 1026.678 130.958 1026.094 130.958 C1025.51 130.958 1025.098 131.025 1024.854 131.165 C1024.581 131.336 1024.405 131.512 1024.338 131.681 C1024.271 131.852 1024.235 132.198 1024.235 132.715 C1024.235 132.715 1024.235 186.441 1024.235 186.441 C1024.235 188.714 1024.529 190.694 1025.113 192.383 C1025.696 194.036 1026.678 195.482 1028.057 196.721 C1029.438 197.926 1031.244 198.907 1033.482 199.667 C1035.718 200.426 1038.426 201.009 1041.593 201.424 C1042.11 201.526 1042.848 201.665 1043.815 201.836 C1044.779 202.007 1045.829 202.199 1046.965 202.405 C1048.102 202.611 1049.223 202.803 1050.324 202.974 C1051.424 203.143 1052.353 203.232 1053.113 203.232 C1053.593 203.232 1053.888 203.349 1053.991 203.593 C1054.058 203.836 1054.095 204.043 1054.095 204.214 C1054.095 204.214 1054.095 209.741 1054.095 209.741 C1054.095 209.91 1054.028 210.139 1053.888 210.412 C1053.784 210.656 1053.526 210.775 1053.113 210.775 C1053.113 210.775 964.154 210.775 964.154 210.775 C963.74 210.775 963.482 210.189 963.379 209.018 C963.24 207.845 963.173 206.745 963.173 205.712 C963.173 205.712 963.173 205.712 963.173 205.712 Z M1024.235 114.532 L1024.442 118.303 C1024.544 118.989 1024.735 119.609 1025.01 120.161 C1025.319 120.715 1025.94 121.024 1026.869 121.091 C1027.629 121.195 1028.765 121.349 1030.28 121.557 C1031.793 121.764 1033.895 121.866 1036.582 121.866 C1043.984 121.866 1050.08 120.73 1054.87 118.457 C1059.658 116.184 1063.429 113.136 1066.183 109.313 C1068.973 105.491 1070.899 101.099 1071.969 96.14 C1073.003 91.181 1073.52 85.999 1073.52 80.591 C1073.52 74.974 1072.64 69.638 1070.884 64.575 C1069.128 59.549 1066.663 55.188 1063.496 51.505 C1060.331 47.785 1056.537 44.841 1052.132 42.672 C1047.725 40.466 1042.868 39.366 1037.564 39.366 C1036.391 39.366 1035.482 39.381 1034.826 39.418 C1034.138 39.485 1033.482 39.535 1032.861 39.572 C1032.205 39.607 1031.482 39.639 1030.692 39.676 C1029.902 39.711 1028.797 39.778 1027.386 39.882 C1026.869 39.882 1026.213 39.985 1025.423 40.191 C1024.633 40.399 1024.235 40.966 1024.235 41.897 C1024.235 41.897 1024.235 114.532 1024.235 114.532 Z " data-centerx="788.986" data-centery="-105.909" stroke="none" stroke-width="0" data-sw="0" stroke-opacity="1" stroke-linecap="round" stroke-linejoin="round" fill="#ffffff" fill-opacity="1" fill-rule="evenodd" filter="none" visibility="visible" stroke-dasharray="none" marker-start="none" marker-end="none" data-name="curve" data-title="curve" deg="0" data-grad="0" data-group="group50" data-edit="1"></path><path id="path39" d="M48 130.473 C48 71.879 95.499 24.38 154.093 24.38 C212.687 24.38 260.186 71.879 260.186 130.473 C260.186 189.067 212.687 236.566 154.093 236.566 C95.499 236.566 48 189.067 48 130.473 Z M154.093 228.707 C208.346 228.707 252.327 184.726 252.327 130.473 C252.327 76.22 208.346 32.239 154.093 32.239 C99.84 32.239 55.859 76.22 55.859 130.473 C55.859 184.726 99.84 228.707 154.093 228.707 Z " data-centerx="219.093" data-centery="-96.527" stroke="none" stroke-width="0" data-sw="0" stroke-opacity="1" stroke-linecap="round" stroke-linejoin="round" fill="#ffffff" fill-opacity="1" fill-rule="evenodd" filter="none" visibility="visible" stroke-dasharray="none" marker-start="none" marker-end="none" data-name="curve" data-title="curve" deg="0" data-grad="0" data-group="group50" data-edit="1"></path><path id="path40" d="M146.68 123.834 L134.945 113.402 L136.332 111.841 L146.594 120.963 L158.779 108.78 L135.639 108.78 L135.639 106.691 L163.823 106.691 " data-centerx="214.384" data-centery="-111.738" stroke="none" stroke-width="0" data-sw="0" stroke-opacity="1" stroke-linecap="round" stroke-linejoin="round" fill="#ffffff" fill-opacity="1" fill-rule="evenodd" filter="none" visibility="visible" stroke-dasharray="none" marker-start="none" marker-end="none" data-name="curve" data-title="curve" deg="0" data-grad="0" data-group="group50" data-edit="1"></path><path id="path41" d="M106.208 99.703 L107.429 105.568 L105.383 105.993 L104.163 100.127 L106.208 99.703 Z " data-centerx="170.797" data-centery="-124.152" stroke="none" stroke-width="0" data-sw="0" stroke-opacity="1" stroke-linecap="round" stroke-linejoin="round" fill="#ffffff" fill-opacity="1" fill-rule="evenodd" filter="none" visibility="visible" stroke-dasharray="none" marker-start="none" marker-end="none" data-name="curve" data-title="curve" deg="0" data-grad="0" data-group="group50" data-edit="1"></path><path id="path42" d="M131.067 102.317 L131.541 104.352 L121.032 106.797 L120.56 104.762 L131.067 102.317 Z " data-centerx="191.051" data-centery="-122.443" stroke="none" stroke-width="0" data-sw="0" stroke-opacity="1" stroke-linecap="round" stroke-linejoin="round" fill="#ffffff" fill-opacity="1" fill-rule="evenodd" filter="none" visibility="visible" stroke-dasharray="none" marker-start="none" marker-end="none" data-name="curve" data-title="curve" deg="0" data-grad="0" data-group="group50" data-edit="1"></path><path id="path43" d="M156.604 170.181 L154.759 169.201 L165.848 148.353 L164.199 135.116 L166.272 134.859 L168.003 148.748 " data-centerx="226.381" data-centery="-74.48" stroke="none" stroke-width="0" data-sw="0" stroke-opacity="1" stroke-linecap="round" stroke-linejoin="round" fill="#ffffff" fill-opacity="1" fill-rule="evenodd" filter="none" visibility="visible" stroke-dasharray="none" marker-start="none" marker-end="none" data-name="curve" data-title="curve" deg="0" data-grad="0" data-group="group50" data-edit="1"></path><path id="path44" d="M177.974 153.45 L166.341 152.154 L166.575 150.077 L176.892 151.227 L184.011 139.725 L180.484 128.201 L182.484 127.589 L186.289 140.018 " data-centerx="241.315" data-centery="-86.481" stroke="none" stroke-width="0" data-sw="0" stroke-opacity="1" stroke-linecap="round" stroke-linejoin="round" fill="#ffffff" fill-opacity="1" fill-rule="evenodd" filter="none" visibility="visible" stroke-dasharray="none" marker-start="none" marker-end="none" data-name="curve" data-title="curve" deg="0" data-grad="0" data-group="group50" data-edit="1"></path><path id="path45" d="M172.84 157.552 L174.633 158.63 L167.062 171.216 L165.269 170.14 L172.84 157.552 Z " data-centerx="234.952" data-centery="-62.615" stroke="none" stroke-width="0" data-sw="0" stroke-opacity="1" stroke-linecap="round" stroke-linejoin="round" fill="#ffffff" fill-opacity="1" fill-rule="evenodd" filter="none" visibility="visible" stroke-dasharray="none" marker-start="none" marker-end="none" data-name="curve" data-title="curve" deg="0" data-grad="0" data-group="group50" data-edit="1"></path><path id="path46" d="M179.203 173.914 L177.617 172.555 L199.033 147.526 L193.272 119.924 L195.316 119.498 L201.29 148.107 " data-centerx="254.452" data-centery="-80.293" stroke="none" stroke-width="0" data-sw="0" stroke-opacity="1" stroke-linecap="round" stroke-linejoin="round" fill="#ffffff" fill-opacity="1" fill-rule="evenodd" filter="none" visibility="visible" stroke-dasharray="none" marker-start="none" marker-end="none" data-name="curve" data-title="curve" deg="0" data-grad="0" data-group="group50" data-edit="1"></path><path id="path47" d="M210.253 103.076 L189.254 89.441 L197.341 83.751 L211.531 82.307 L216.755 92.895 L210.253 103.076 Z M192.984 89.37 L209.624 100.175 L214.361 92.759 L210.301 84.53 L198.097 85.774 L192.984 89.37 Z " data-centerx="268.004" data-centery="-134.308" stroke="none" stroke-width="0" data-sw="0" stroke-opacity="1" stroke-linecap="round" stroke-linejoin="round" fill="#ffffff" fill-opacity="1" fill-rule="evenodd" filter="none" visibility="visible" stroke-dasharray="none" marker-start="none" marker-end="none" data-name="curve" data-title="curve" deg="0" data-grad="0" data-group="group50" data-edit="1"></path><path id="path48" d="M216.822 106.983 L222.257 93.894 L214.154 76.646 L203.325 78.215 L203.57 77.143 L154.47 65.926 L143.379 72.36 L143.569 71.679 L117.655 64.449 L113.253 74.203 L117.256 85.502 L118.508 86.787 L98.886 98.171 L101.388 109.217 L74.02 147.53 L86.783 168.178 L91.172 181.729 L124.029 176.858 L181.744 192.202 L182.356 192.363 L224.151 146.811 L224.508 146.423 L216.822 106.983 Z M119.147 84.585 L115.503 74.299 L118.823 66.946 L141.709 73.33 L120.303 85.748 L119.147 84.585 Z M125.379 90.86 L121.824 87.28 L131.455 81.693 L134.995 85.989 L127.167 91.104 L125.379 90.86 Z M181.669 190.02 L124.148 174.728 L92.613 179.403 L88.794 167.605 L92.356 165.687 L102.201 168.731 L102.819 166.736 L94.304 164.101 L105.632 148.725 L87.189 148.725 L87.189 150.815 L101.496 150.815 L93.063 162.262 L91.454 161.136 L90.256 162.849 L91.544 163.75 L87.749 165.795 L87.845 165.973 L76.528 147.614 L103.632 109.675 L101.262 99.212 L120.01 88.335 L124.394 92.839 L124.499 92.853 L115.027 99.043 L116.17 100.792 L127.658 93.284 L140.877 95.087 L141.159 93.016 L130.331 91.539 L137.507 86.85 L162.96 88.007 L163.054 85.92 L140.499 84.894 L152.078 77.327 L150.935 75.578 L136.93 84.731 L136.66 84.718 L133.292 80.631 L154.811 68.146 L200.609 78.608 L196.275 79.237 L187.02 85.989 L188.253 87.677 L197.088 81.233 L212.927 78.936 L219.978 93.948 L214.657 106.766 L222.259 145.789 L181.669 190.02 Z " data-centerx="214.263" data-centery="-98.594" stroke="none" stroke-width="0" data-sw="0" stroke-opacity="1" stroke-linecap="round" stroke-linejoin="round" fill="#ffffff" fill-opacity="1" fill-rule="evenodd" filter="none" visibility="visible" stroke-dasharray="none" marker-start="none" marker-end="none" data-name="curve" data-title="curve" deg="0" data-grad="0" data-group="group50" data-edit="1"></path><path id="path49" d="M170.24 159.709 L565.76 159.709 L565.76 179.051 L170.24 179.051 L170.24 159.709 Z " data-centerx="433" data-centery="-57.62" stroke="none" stroke-width="0" data-sw="0" stroke-opacity="1" stroke-linecap="round" stroke-linejoin="round" fill="none" fill-opacity="1" fill-rule="evenodd" filter="none" visibility="visible" stroke-dasharray="none" marker-start="none" marker-end="none" data-name="curve" data-title="curve" deg="0" data-grad="0" data-group="group50" data-edit="1"></path></g></g><g id="settings" visibility="hidden" data-dn0="primalDraw" data-dn1="#FAFAFA" data-dn2="#D2D2D2" data-dn3="18" data-dn4="#000000" data-dn5="#B3B3B3" data-dn6="1" data-dn7="1" data-dn8="2" data-dn9="round" data-dn10="round" data-dn11="none" data-dn12="none" data-dn13="none" data-dn14="evenodd" data-dn15="10" data-dn16="1" data-dn17="1200" data-dn18="250" data-dn19="10" data-dn20="0" data-dn21="1" data-dn22="1" data-dn23="51" data-dn24="group50" data-dn25="2" data-dn26="url(#linear0)" data-dn27="url(#linear1)" data-dn28="url(#radial0)" data-dn29="url(#radial1)" data-dn30="#FF8000" data-dn31="#FFFF00" data-dn32="#000000" data-dn33="1" data-dn34="1" data-dn35="10" data-dn36="" data-dn37="0" data-dn38="75"></g></svg>